<mxfile host="app.diagrams.net" modified="2023-12-19T11:43:15.260Z" agent="Mozilla/5.0 (Windows NT 10.0; Win64; x64) AppleWebKit/537.36 (KHTML, like Gecko) Chrome/120.0.0.0 Safari/537.36 Edg/120.0.0.0" etag="Mr_tJEvqgcZRXrADijjf" version="22.1.11" type="github">
  <diagram name="第 1 页" id="q8IZRaRzwTVAQOV0xiec">
    <mxGraphModel dx="2080" dy="679" grid="1" gridSize="10" guides="1" tooltips="1" connect="1" arrows="0" fold="1" page="1" pageScale="1" pageWidth="827" pageHeight="1169" math="0" shadow="0">
      <root>
        <mxCell id="0" />
        <mxCell id="1" parent="0" />
        <mxCell id="2GdTtLGjtlX9U82-Q6n6-33" style="rounded=0;orthogonalLoop=1;jettySize=auto;html=1;exitX=1;exitY=0.3333333333333333;exitDx=0;exitDy=0;exitPerimeter=0;entryX=0;entryY=0.5;entryDx=0;entryDy=0;endArrow=none;endFill=0;" edge="1" parent="1" source="Uy61JrXMBSOCwjgCCLbL-1" target="2GdTtLGjtlX9U82-Q6n6-1">
          <mxGeometry relative="1" as="geometry" />
        </mxCell>
        <mxCell id="Uy61JrXMBSOCwjgCCLbL-1" value="任务执行者&lt;br style=&quot;font-size: 25px;&quot;&gt;（提供信息）" style="shape=umlActor;verticalLabelPosition=bottom;verticalAlign=top;html=1;outlineConnect=0;fillColor=#f8cecc;strokeColor=#b85450;fontSize=25;" parent="1" vertex="1">
          <mxGeometry x="480" y="410" width="30" height="60" as="geometry" />
        </mxCell>
        <mxCell id="2GdTtLGjtlX9U82-Q6n6-1" value="登录" style="ellipse;whiteSpace=wrap;html=1;fontSize=20;" vertex="1" parent="1">
          <mxGeometry x="670" y="160" width="140" height="70" as="geometry" />
        </mxCell>
        <mxCell id="2GdTtLGjtlX9U82-Q6n6-2" value="注册" style="ellipse;whiteSpace=wrap;html=1;fontSize=20;" vertex="1" parent="1">
          <mxGeometry x="670" y="250" width="140" height="70" as="geometry" />
        </mxCell>
        <mxCell id="2GdTtLGjtlX9U82-Q6n6-3" value="查看任务信息" style="ellipse;whiteSpace=wrap;html=1;fontSize=20;" vertex="1" parent="1">
          <mxGeometry x="670" y="350" width="140" height="70" as="geometry" />
        </mxCell>
        <mxCell id="2GdTtLGjtlX9U82-Q6n6-4" value="接收任务" style="ellipse;whiteSpace=wrap;html=1;fontSize=20;" vertex="1" parent="1">
          <mxGeometry x="670" y="450" width="140" height="70" as="geometry" />
        </mxCell>
        <mxCell id="2GdTtLGjtlX9U82-Q6n6-5" value="拒绝任务" style="ellipse;whiteSpace=wrap;html=1;fontSize=20;" vertex="1" parent="1">
          <mxGeometry x="670" y="550" width="140" height="70" as="geometry" />
        </mxCell>
        <mxCell id="2GdTtLGjtlX9U82-Q6n6-8" value="上传相关信息" style="ellipse;whiteSpace=wrap;html=1;fillColor=#f8cecc;strokeColor=#b85450;fontSize=20;" vertex="1" parent="1">
          <mxGeometry x="670" y="650" width="140" height="70" as="geometry" />
        </mxCell>
        <mxCell id="2GdTtLGjtlX9U82-Q6n6-26" style="rounded=0;orthogonalLoop=1;jettySize=auto;html=1;exitX=1;exitY=0.3333333333333333;exitDx=0;exitDy=0;exitPerimeter=0;endArrow=none;endFill=0;entryX=0;entryY=0.5;entryDx=0;entryDy=0;" edge="1" parent="1" source="2GdTtLGjtlX9U82-Q6n6-9" target="2GdTtLGjtlX9U82-Q6n6-13">
          <mxGeometry relative="1" as="geometry" />
        </mxCell>
        <mxCell id="2GdTtLGjtlX9U82-Q6n6-9" value="任务发布者" style="shape=umlActor;verticalLabelPosition=bottom;verticalAlign=top;html=1;fillColor=#fff2cc;strokeColor=#d6b656;fontSize=25;" vertex="1" parent="1">
          <mxGeometry x="40" y="410" width="30" height="60" as="geometry" />
        </mxCell>
        <mxCell id="2GdTtLGjtlX9U82-Q6n6-10" value="登录" style="ellipse;whiteSpace=wrap;html=1;fontSize=20;" vertex="1" parent="1">
          <mxGeometry x="230" y="90" width="140" height="70" as="geometry" />
        </mxCell>
        <mxCell id="2GdTtLGjtlX9U82-Q6n6-13" value="注册" style="ellipse;whiteSpace=wrap;html=1;fontSize=20;" vertex="1" parent="1">
          <mxGeometry x="230" y="190" width="140" height="70" as="geometry" />
        </mxCell>
        <mxCell id="2GdTtLGjtlX9U82-Q6n6-15" value="修改个人信息" style="ellipse;whiteSpace=wrap;html=1;fontSize=20;" vertex="1" parent="1">
          <mxGeometry x="230" y="290" width="140" height="70" as="geometry" />
        </mxCell>
        <mxCell id="2GdTtLGjtlX9U82-Q6n6-16" value="查看任务结果" style="ellipse;whiteSpace=wrap;html=1;fontSize=20;" vertex="1" parent="1">
          <mxGeometry x="230" y="400" width="140" height="70" as="geometry" />
        </mxCell>
        <mxCell id="2GdTtLGjtlX9U82-Q6n6-17" value="查看任务信息" style="ellipse;whiteSpace=wrap;html=1;fontSize=20;" vertex="1" parent="1">
          <mxGeometry x="230" y="500" width="140" height="70" as="geometry" />
        </mxCell>
        <mxCell id="2GdTtLGjtlX9U82-Q6n6-19" value="发布任务" style="ellipse;whiteSpace=wrap;html=1;fontSize=20;" vertex="1" parent="1">
          <mxGeometry x="230" y="700" width="140" height="70" as="geometry" />
        </mxCell>
        <mxCell id="2GdTtLGjtlX9U82-Q6n6-20" value="公布结果" style="ellipse;whiteSpace=wrap;html=1;fontSize=21;fillColor=#fff2cc;strokeColor=#d6b656;" vertex="1" parent="1">
          <mxGeometry x="230" y="800" width="140" height="70" as="geometry" />
        </mxCell>
        <mxCell id="2GdTtLGjtlX9U82-Q6n6-21" value="添加事件地点" style="ellipse;whiteSpace=wrap;html=1;fillColor=#fff2cc;strokeColor=#d6b656;fontSize=20;" vertex="1" parent="1">
          <mxGeometry x="230" y="600" width="140" height="70" as="geometry" />
        </mxCell>
        <mxCell id="2GdTtLGjtlX9U82-Q6n6-22" style="rounded=0;orthogonalLoop=1;jettySize=auto;html=1;entryX=-0.004;entryY=0.697;entryDx=0;entryDy=0;entryPerimeter=0;endArrow=none;endFill=0;exitX=1;exitY=0.3333333333333333;exitDx=0;exitDy=0;exitPerimeter=0;" edge="1" parent="1" source="2GdTtLGjtlX9U82-Q6n6-9" target="2GdTtLGjtlX9U82-Q6n6-10">
          <mxGeometry relative="1" as="geometry" />
        </mxCell>
        <mxCell id="2GdTtLGjtlX9U82-Q6n6-27" style="rounded=0;orthogonalLoop=1;jettySize=auto;html=1;exitX=1;exitY=0.3333333333333333;exitDx=0;exitDy=0;exitPerimeter=0;endArrow=none;endFill=0;entryX=0;entryY=0.5;entryDx=0;entryDy=0;" edge="1" parent="1" source="2GdTtLGjtlX9U82-Q6n6-9" target="2GdTtLGjtlX9U82-Q6n6-17">
          <mxGeometry relative="1" as="geometry">
            <mxPoint x="140" y="230" as="sourcePoint" />
            <mxPoint x="243" y="245" as="targetPoint" />
          </mxGeometry>
        </mxCell>
        <mxCell id="2GdTtLGjtlX9U82-Q6n6-28" style="rounded=0;orthogonalLoop=1;jettySize=auto;html=1;exitX=1;exitY=0.3333333333333333;exitDx=0;exitDy=0;exitPerimeter=0;endArrow=none;endFill=0;entryX=0;entryY=0.5;entryDx=0;entryDy=0;" edge="1" parent="1" source="2GdTtLGjtlX9U82-Q6n6-9" target="2GdTtLGjtlX9U82-Q6n6-16">
          <mxGeometry relative="1" as="geometry">
            <mxPoint x="150" y="240" as="sourcePoint" />
            <mxPoint x="253" y="255" as="targetPoint" />
          </mxGeometry>
        </mxCell>
        <mxCell id="2GdTtLGjtlX9U82-Q6n6-29" style="rounded=0;orthogonalLoop=1;jettySize=auto;html=1;exitX=1;exitY=0.3333333333333333;exitDx=0;exitDy=0;exitPerimeter=0;endArrow=none;endFill=0;entryX=0;entryY=0.5;entryDx=0;entryDy=0;" edge="1" parent="1" source="2GdTtLGjtlX9U82-Q6n6-9" target="2GdTtLGjtlX9U82-Q6n6-15">
          <mxGeometry relative="1" as="geometry">
            <mxPoint x="160" y="250" as="sourcePoint" />
            <mxPoint x="263" y="265" as="targetPoint" />
          </mxGeometry>
        </mxCell>
        <mxCell id="2GdTtLGjtlX9U82-Q6n6-30" style="rounded=0;orthogonalLoop=1;jettySize=auto;html=1;exitX=1;exitY=0.3333333333333333;exitDx=0;exitDy=0;exitPerimeter=0;endArrow=none;endFill=0;entryX=0;entryY=0.5;entryDx=0;entryDy=0;" edge="1" parent="1" source="2GdTtLGjtlX9U82-Q6n6-9" target="2GdTtLGjtlX9U82-Q6n6-21">
          <mxGeometry relative="1" as="geometry">
            <mxPoint x="140" y="230" as="sourcePoint" />
            <mxPoint x="240" y="605" as="targetPoint" />
          </mxGeometry>
        </mxCell>
        <mxCell id="2GdTtLGjtlX9U82-Q6n6-31" style="rounded=0;orthogonalLoop=1;jettySize=auto;html=1;exitX=1;exitY=0.3333333333333333;exitDx=0;exitDy=0;exitPerimeter=0;endArrow=none;endFill=0;entryX=0;entryY=0.5;entryDx=0;entryDy=0;" edge="1" parent="1" source="2GdTtLGjtlX9U82-Q6n6-9" target="2GdTtLGjtlX9U82-Q6n6-19">
          <mxGeometry relative="1" as="geometry">
            <mxPoint x="140" y="230" as="sourcePoint" />
            <mxPoint x="240" y="715" as="targetPoint" />
          </mxGeometry>
        </mxCell>
        <mxCell id="2GdTtLGjtlX9U82-Q6n6-32" style="rounded=0;orthogonalLoop=1;jettySize=auto;html=1;exitX=1;exitY=0.3333333333333333;exitDx=0;exitDy=0;exitPerimeter=0;endArrow=none;endFill=0;entryX=0;entryY=0.5;entryDx=0;entryDy=0;" edge="1" parent="1" source="2GdTtLGjtlX9U82-Q6n6-9" target="2GdTtLGjtlX9U82-Q6n6-20">
          <mxGeometry relative="1" as="geometry">
            <mxPoint x="140" y="230" as="sourcePoint" />
            <mxPoint x="240" y="835" as="targetPoint" />
          </mxGeometry>
        </mxCell>
        <mxCell id="2GdTtLGjtlX9U82-Q6n6-34" style="rounded=0;orthogonalLoop=1;jettySize=auto;html=1;exitX=1;exitY=0.3333333333333333;exitDx=0;exitDy=0;exitPerimeter=0;entryX=0;entryY=0.5;entryDx=0;entryDy=0;endArrow=none;endFill=0;" edge="1" parent="1" source="Uy61JrXMBSOCwjgCCLbL-1" target="2GdTtLGjtlX9U82-Q6n6-2">
          <mxGeometry relative="1" as="geometry">
            <mxPoint x="520" y="460" as="sourcePoint" />
            <mxPoint x="680" y="205" as="targetPoint" />
          </mxGeometry>
        </mxCell>
        <mxCell id="2GdTtLGjtlX9U82-Q6n6-35" style="rounded=0;orthogonalLoop=1;jettySize=auto;html=1;entryX=0;entryY=0.5;entryDx=0;entryDy=0;endArrow=none;endFill=0;exitX=1;exitY=0.3333333333333333;exitDx=0;exitDy=0;exitPerimeter=0;" edge="1" parent="1" source="Uy61JrXMBSOCwjgCCLbL-1" target="2GdTtLGjtlX9U82-Q6n6-3">
          <mxGeometry relative="1" as="geometry">
            <mxPoint x="510" y="450" as="sourcePoint" />
            <mxPoint x="680" y="295" as="targetPoint" />
          </mxGeometry>
        </mxCell>
        <mxCell id="2GdTtLGjtlX9U82-Q6n6-36" style="rounded=0;orthogonalLoop=1;jettySize=auto;html=1;entryX=0;entryY=0.5;entryDx=0;entryDy=0;endArrow=none;endFill=0;exitX=1;exitY=0.3333333333333333;exitDx=0;exitDy=0;exitPerimeter=0;" edge="1" parent="1" source="Uy61JrXMBSOCwjgCCLbL-1" target="2GdTtLGjtlX9U82-Q6n6-4">
          <mxGeometry relative="1" as="geometry">
            <mxPoint x="520" y="460" as="sourcePoint" />
            <mxPoint x="680" y="395" as="targetPoint" />
          </mxGeometry>
        </mxCell>
        <mxCell id="2GdTtLGjtlX9U82-Q6n6-37" style="rounded=0;orthogonalLoop=1;jettySize=auto;html=1;entryX=0;entryY=0.5;entryDx=0;entryDy=0;endArrow=none;endFill=0;exitX=1;exitY=0.3333333333333333;exitDx=0;exitDy=0;exitPerimeter=0;" edge="1" parent="1" source="Uy61JrXMBSOCwjgCCLbL-1" target="2GdTtLGjtlX9U82-Q6n6-5">
          <mxGeometry relative="1" as="geometry">
            <mxPoint x="520" y="460" as="sourcePoint" />
            <mxPoint x="680" y="495" as="targetPoint" />
          </mxGeometry>
        </mxCell>
        <mxCell id="2GdTtLGjtlX9U82-Q6n6-38" style="rounded=0;orthogonalLoop=1;jettySize=auto;html=1;entryX=0;entryY=0.5;entryDx=0;entryDy=0;endArrow=none;endFill=0;exitX=1;exitY=0.3333333333333333;exitDx=0;exitDy=0;exitPerimeter=0;" edge="1" parent="1" source="Uy61JrXMBSOCwjgCCLbL-1" target="2GdTtLGjtlX9U82-Q6n6-8">
          <mxGeometry relative="1" as="geometry">
            <mxPoint x="520" y="460" as="sourcePoint" />
            <mxPoint x="680" y="595" as="targetPoint" />
          </mxGeometry>
        </mxCell>
      </root>
    </mxGraphModel>
  </diagram>
</mxfile>
